<?xml version="1.0" standalone="no"?>
<!DOCTYPE svg PUBLIC "-//W3C//DTD SVG 20010904//EN"
 "http://www.w3.org/TR/2001/REC-SVG-20010904/DTD/svg10.dtd">
<svg version="1.0" xmlns="http://www.w3.org/2000/svg"
 width="402.000000pt" height="402.000000pt" viewBox="0 0 402.000000 402.000000"
 preserveAspectRatio="xMidYMid meet">
<metadata>
Created by potrace 1.11, written by Peter Selinger 2001-2013
</metadata>
<g transform="translate(0.000000,402.000000) scale(0.100000,-0.100000)"
fill="#000000" stroke="none">
<path d="M2390 4012 c-48 -8 -165 -69 -215 -112 -27 -24 -67 -66 -88 -94 -86
-115 -169 -332 -202 -531 -3 -17 -9 -43 -13 -59 -8 -28 -9 -27 -31 35 -126
350 -327 555 -531 544 -164 -9 -330 -173 -358 -355 -25 -163 21 -361 130 -560
23 -41 47 -86 54 -99 10 -20 9 -30 -13 -73 -31 -61 -42 -98 -49 -163 -9 -90
-11 -93 -70 -121 -202 -95 -410 -287 -495 -456 -35 -69 -92 -255 -125 -408
-28 -127 -40 -340 -24 -421 9 -45 19 -117 25 -169 5 -46 46 -255 56 -286 5
-17 11 -40 13 -50 30 -151 133 -370 213 -448 61 -60 178 -109 313 -131 19 -3
42 -8 50 -10 13 -4 53 -9 145 -20 124 -14 286 -20 575 -20 349 0 487 6 745 30
145 14 173 17 225 25 30 5 73 12 95 15 78 9 195 35 262 56 238 77 392 256 469
543 33 127 43 207 47 377 2 67 6 91 20 106 9 11 25 52 35 92 53 207 -28 535
-196 792 -61 94 -71 106 -152 192 -106 113 -250 210 -385 261 -60 22 -69 30
-70 59 -8 140 -60 268 -147 363 l-37 41 54 92 c56 94 95 166 95 176 0 3 -16 5
-35 5 -45 0 -101 23 -113 47 -12 22 7 70 38 98 18 16 17 18 -28 42 -84 43
-119 101 -88 147 15 24 50 39 119 51 45 7 48 28 7 45 -48 20 -68 83 -35 110
19 16 78 6 124 -21 42 -25 54 -12 37 42 -24 81 -142 181 -246 209 -47 13 -156
19 -200 12z"/>
</g>
</svg>
