<svg xmlns="http://www.w3.org/2000/svg" viewBox="0 0 62.08 20"><defs><style>.cls-1{opacity:0.2;}.cls-2{fill:#f4ad42;}.cls-3{fill:none;stroke:#fff;stroke-miterlimit:10;}.cls-4{fill:#6ecef9;}.cls-5{fill:#fff;}</style></defs><title>BubblyFast black</title><g id="Calque_2" data-name="Calque 2"><g id="Calque_1-2" data-name="Calque 1"><g id="BubblyFast_black" data-name="BubblyFast black"><g id="Bubbls" class="cls-1"><path class="cls-2" d="M41,11c0-1.1-1.73-2-3.88-2s-3.88.89-3.88,2,1.74,2,3.88,2S41,12.09,41,11"/><ellipse class="cls-3" cx="37.11" cy="11" rx="3.88" ry="1.98"/><path class="cls-4" d="M34.15,9c0-1.59-2.51-2.87-5.6-2.87S22.94,7.42,22.94,9s2.51,2.86,5.61,2.86,5.6-1.28,5.6-2.86"/><ellipse class="cls-3" cx="28.55" cy="9.01" rx="5.61" ry="2.87"/><path class="cls-4" d="M44.72,6.09c0-.41-.65-.75-1.45-.75s-1.46.34-1.46.75.65.74,1.46.74,1.45-.33,1.45-.74"/><ellipse class="cls-3" cx="43.27" cy="6.09" rx="1.46" ry="0.75"/><path class="cls-4" d="M46,3.19c0-.63-1-1.13-2.2-1.13s-2.21.5-2.21,1.13,1,1.12,2.21,1.12S46,3.81,46,3.19"/><ellipse class="cls-3" cx="43.82" cy="3.19" rx="2.2" ry="1.13"/><path class="cls-4" d="M36.49,4.25C36.49,3,34.54,2,32.14,2S27.8,3,27.8,4.25s1.94,2.22,4.34,2.22,4.35-1,4.35-2.22"/><ellipse class="cls-3" cx="32.14" cy="4.25" rx="4.34" ry="2.22"/><path class="cls-4" d="M33.51,1.31c0-.41-.64-.74-1.43-.74s-1.43.33-1.43.74.64.75,1.43.75,1.43-.34,1.43-.75"/><ellipse class="cls-3" cx="32.08" cy="1.31" rx="1.43" ry="0.75"/><path class="cls-4" d="M42.26,6.29c0-1-1.55-1.78-3.47-1.78s-3.47.8-3.47,1.78,1.55,1.77,3.47,1.77,3.47-.79,3.47-1.77"/><ellipse class="cls-3" cx="38.79" cy="6.29" rx="3.47" ry="1.77"/><path class="cls-4" d="M41.16,8.71c0-.42-.66-.75-1.46-.75s-1.46.33-1.46.75.65.74,1.46.74,1.46-.33,1.46-.74"/><ellipse class="cls-3" cx="39.7" cy="8.71" rx="1.46" ry="0.75"/><path class="cls-4" d="M37.56,8.33c0-.51-.8-.92-1.78-.92S34,7.82,34,8.33s.8.91,1.79.91,1.78-.41,1.78-.91"/><ellipse class="cls-3" cx="35.78" cy="8.33" rx="1.78" ry="0.91"/><path class="cls-4" d="M35.68,7c0-.41-.65-.75-1.46-.75s-1.46.34-1.46.75.65.75,1.46.75,1.46-.34,1.46-.75"/><ellipse class="cls-3" cx="34.22" cy="6.95" rx="1.46" ry="0.75"/><path class="cls-4" d="M39.21,4c0-.41-.65-.74-1.46-.74s-1.46.33-1.46.74.66.75,1.46.75,1.46-.34,1.46-.75"/><ellipse class="cls-3" cx="37.75" cy="4.03" rx="1.46" ry="0.75"/><path class="cls-4" d="M42,3.93c0-.41-.65-.74-1.46-.74s-1.46.33-1.46.74.66.75,1.46.75S42,4.34,42,3.93"/><ellipse class="cls-3" cx="40.54" cy="3.93" rx="1.46" ry="0.75"/><path class="cls-4" d="M44.4,4.89c0-.43-.68-.78-1.52-.78s-1.53.35-1.53.78.68.78,1.53.78,1.52-.35,1.52-.78"/><ellipse class="cls-3" cx="42.88" cy="4.89" rx="1.52" ry="0.78"/><path class="cls-4" d="M43.23,10.17c0-.42-.65-.75-1.46-.75s-1.46.33-1.46.75.66.74,1.46.74,1.46-.33,1.46-.74"/><ellipse class="cls-3" cx="41.77" cy="10.17" rx="1.46" ry="0.75"/><path class="cls-4" d="M47.64,8.28c0-.95-1.49-1.71-3.34-1.71S41,7.33,41,8.28,42.46,10,44.3,10s3.34-.76,3.34-1.7"/><ellipse class="cls-3" cx="44.3" cy="8.28" rx="3.34" ry="1.71"/><path class="cls-2" d="M46.28,1.43c0-.46-.72-.83-1.62-.83S43,1,43,1.43s.72.83,1.62.83,1.62-.37,1.62-.83"/><ellipse class="cls-3" cx="44.66" cy="1.43" rx="1.62" ry="0.83"/><path class="cls-4" d="M4.33,9.64c0-.42-.66-.75-1.46-.75s-1.46.33-1.46.75.65.74,1.46.74,1.46-.33,1.46-.74"/><ellipse class="cls-3" cx="2.87" cy="9.64" rx="1.46" ry="0.75"/><path class="cls-2" d="M3.52,11.12c0-.42-.66-.75-1.47-.75s-1.47.33-1.47.75.66.75,1.47.75,1.47-.34,1.47-.75"/><ellipse class="cls-3" cx="2.05" cy="11.12" rx="1.47" ry="0.75"/><path class="cls-4" d="M3.94,8c0-.48-.77-.88-1.72-.88S.5,7.53.5,8s.77.88,1.72.88S3.94,8.5,3.94,8"/><ellipse class="cls-3" cx="2.22" cy="8.01" rx="1.72" ry="0.88"/><path class="cls-4" d="M6.21,7c0-.42-.71-.75-1.59-.75S3,6.6,3,7s.71.74,1.59.74S6.21,7.43,6.21,7"/><ellipse class="cls-3" cx="4.62" cy="7.02" rx="1.59" ry="0.75"/><path class="cls-4" d="M6.47,8.42c0-.45-.73-.82-1.63-.82S3.22,8,3.22,8.42s.73.83,1.62.83,1.63-.37,1.63-.83"/><ellipse class="cls-3" cx="4.84" cy="8.42" rx="1.62" ry="0.83"/><path class="cls-2" d="M9.28,7.48c0-.47-.75-.85-1.66-.85S6,7,6,7.48s.75.85,1.67.85S9.28,8,9.28,7.48"/><ellipse class="cls-3" cx="7.62" cy="7.48" rx="1.66" ry="0.85"/><path class="cls-4" d="M8.15,6.24c0-.42-.67-.77-1.49-.77s-1.49.35-1.49.77S5.84,7,6.66,7s1.49-.34,1.49-.76"/><ellipse class="cls-3" cx="6.66" cy="6.24" rx="1.49" ry="0.76"/><path class="cls-4" d="M4,6.32c0-.49-.77-.88-1.72-.88S.56,5.83.56,6.32s.77.88,1.72.88S4,6.8,4,6.32"/><ellipse class="cls-3" cx="2.28" cy="6.32" rx="1.72" ry="0.88"/><path class="cls-4" d="M3.68,1.31C3.68.86,3,.5,2.12.5S.56.86.56,1.31s.7.81,1.56.81,1.56-.36,1.56-.81"/><ellipse class="cls-3" cx="2.12" cy="1.31" rx="1.56" ry="0.81"/><path class="cls-4" d="M8.86,3.62C8.86,2.44,7,1.49,4.71,1.49S.56,2.44.56,3.62,2.42,5.74,4.71,5.74s4.15-1,4.15-2.12"/><ellipse class="cls-3" cx="4.71" cy="3.62" rx="4.15" ry="2.12"/><path class="cls-2" d="M18.4,5.36c0-1.49-2.36-2.7-5.27-2.7S7.86,3.87,7.86,5.36s2.36,2.69,5.27,2.69,5.27-1.2,5.27-2.69"/><ellipse class="cls-3" cx="13.13" cy="5.36" rx="5.27" ry="2.7"/><path class="cls-4" d="M16.58,1.93c0-.55-.87-1-1.94-1s-2,.45-2,1,.87,1,2,1,1.94-.44,1.94-1"/><ellipse class="cls-3" cx="14.64" cy="1.93" rx="1.95" ry="0.99"/><path class="cls-4" d="M58.34,10.46c0-.46-.74-.84-1.65-.84S55,10,55,10.46s.74.85,1.66.85,1.65-.38,1.65-.85"/><ellipse class="cls-3" cx="56.69" cy="10.46" rx="1.65" ry="0.85"/><path class="cls-4" d="M58.6,7.93c0-1.28-2-2.32-4.54-2.32s-4.54,1-4.54,2.32,2,2.32,4.54,2.32,4.54-1,4.54-2.32"/><ellipse class="cls-3" cx="54.06" cy="7.93" rx="4.54" ry="2.32"/><path class="cls-4" d="M48.42,1.68c0-.41-.65-.75-1.46-.75s-1.46.34-1.46.75.66.74,1.46.74,1.46-.33,1.46-.74"/><ellipse class="cls-3" cx="46.96" cy="1.68" rx="1.46" ry="0.75"/><path class="cls-4" d="M48.65,2.8c0-.43-.7-.79-1.56-.79s-1.56.36-1.56.79.7.8,1.56.8,1.56-.36,1.56-.8"/><ellipse class="cls-3" cx="47.09" cy="2.8" rx="1.56" ry="0.8"/><path class="cls-4" d="M51.21,5.37c0-1-1.57-1.79-3.5-1.79s-3.5.81-3.5,1.79,1.56,1.79,3.5,1.79,3.5-.8,3.5-1.79"/><ellipse class="cls-3" cx="47.71" cy="5.37" rx="3.5" ry="1.79"/><path class="cls-4" d="M51.4,3.12c0-.46-.72-.83-1.62-.83s-1.62.37-1.62.83.73.83,1.62.83,1.62-.37,1.62-.83"/><ellipse class="cls-3" cx="49.78" cy="3.12" rx="1.62" ry="0.83"/><path class="cls-4" d="M56.91,4.23c0-.89-1.4-1.61-3.14-1.61s-3.14.72-3.14,1.61S52,5.84,53.77,5.84s3.14-.72,3.14-1.61"/><ellipse class="cls-3" cx="53.77" cy="4.23" rx="3.14" ry="1.61"/><path class="cls-4" d="M57.34,5.66c0-.41-.64-.73-1.43-.73s-1.43.32-1.43.73.64.73,1.43.73,1.43-.33,1.43-.73"/><ellipse class="cls-3" cx="55.91" cy="5.66" rx="1.43" ry="0.73"/><path class="cls-4" d="M20.73,7.05c0-.5-.8-.91-1.78-.91s-1.78.41-1.78.91S18,8,19,8s1.78-.41,1.78-.91"/><ellipse class="cls-3" cx="18.95" cy="7.05" rx="1.78" ry="0.91"/><path class="cls-4" d="M22.48,3.62c0-.44-.69-.8-1.55-.8s-1.56.36-1.56.8.7.79,1.56.79,1.55-.35,1.55-.79"/><ellipse class="cls-3" cx="20.93" cy="3.62" rx="1.56" ry="0.8"/><path class="cls-4" d="M19.82,3.2c0-.46-.74-.84-1.65-.84s-1.65.38-1.65.84.74.85,1.65.85,1.65-.38,1.65-.85"/><ellipse class="cls-3" cx="18.17" cy="3.2" rx="1.65" ry="0.85"/><path class="cls-4" d="M22,5.27c0-.54-.87-1-1.94-1s-1.95.45-1.95,1,.87,1,1.95,1S22,5.82,22,5.27"/><ellipse class="cls-3" cx="20.02" cy="5.27" rx="1.95" ry="0.99"/><path class="cls-4" d="M29,2.94c0-.41-.64-.75-1.42-.75s-1.43.34-1.43.75.64.74,1.43.74S29,3.35,29,2.94"/><ellipse class="cls-3" cx="27.61" cy="2.94" rx="1.43" ry="0.75"/><path class="cls-4" d="M28.16,4.69C28.16,3.78,26.7,3,24.91,3s-3.24.74-3.24,1.65,1.45,1.66,3.24,1.66,3.25-.74,3.25-1.66"/><ellipse class="cls-3" cx="24.91" cy="4.69" rx="3.24" ry="1.66"/><path class="cls-4" d="M18.92,8.46c0-.55-.88-1-2-1S15,7.91,15,8.46s.87,1,1.94,1,2-.44,2-1"/><ellipse class="cls-3" cx="16.97" cy="8.46" rx="1.95" ry="0.99"/><path class="cls-4" d="M19.3,10.15c0-.46-.72-.83-1.62-.83s-1.62.37-1.62.83.73.83,1.62.83,1.62-.37,1.62-.83"/><ellipse class="cls-3" cx="17.68" cy="10.15" rx="1.62" ry="0.83"/><path class="cls-2" d="M24.36,6.83c0-.58-.93-1.06-2.07-1.06s-2.08.48-2.08,1.06.93,1.06,2.08,1.06,2.07-.47,2.07-1.06"/><ellipse class="cls-3" cx="22.29" cy="6.83" rx="2.07" ry="1.06"/><path class="cls-4" d="M22.55,16.17c0-.47-.74-.85-1.66-.85s-1.65.38-1.65.85S20,17,20.89,17s1.66-.38,1.66-.84"/><ellipse class="cls-3" cx="20.89" cy="16.17" rx="1.65" ry="0.85"/><path class="cls-4" d="M23.33,14.63c0-.44-.7-.8-1.56-.8s-1.56.36-1.56.8.7.79,1.56.79,1.56-.35,1.56-.79"/><ellipse class="cls-3" cx="21.77" cy="14.63" rx="1.56" ry="0.8"/><path class="cls-4" d="M25.47,13.6c0-.42-.67-.76-1.5-.76s-1.49.34-1.49.76.67.76,1.49.76,1.5-.34,1.5-.76"/><ellipse class="cls-3" cx="23.97" cy="13.6" rx="1.49" ry="0.76"/><path class="cls-4" d="M25.72,11.94c0-.42-.66-.76-1.49-.76s-1.49.34-1.49.76.67.76,1.49.76,1.49-.34,1.49-.76"/><ellipse class="cls-3" cx="24.23" cy="11.94" rx="1.49" ry="0.76"/><path class="cls-4" d="M23.26,13c0-.63-1-1.14-2.24-1.14s-2.23.51-2.23,1.14,1,1.15,2.23,1.15,2.24-.52,2.24-1.15"/><ellipse class="cls-3" cx="21.02" cy="12.95" rx="2.24" ry="1.14"/><path class="cls-2" d="M19.49,12c0-.43-.67-.77-1.49-.77s-1.5.34-1.5.77.67.76,1.5.76,1.49-.34,1.49-.76"/><ellipse class="cls-3" cx="18" cy="12" rx="1.5" ry="0.77"/><path class="cls-4" d="M23.71,10.78c0-.73-1.16-1.33-2.59-1.33s-2.59.6-2.59,1.33,1.16,1.33,2.59,1.33,2.59-.6,2.59-1.33"/><ellipse class="cls-3" cx="21.12" cy="10.78" rx="2.59" ry="1.33"/><path class="cls-4" d="M22.55,8.64c0-.52-.83-.94-1.85-.94s-1.85.42-1.85.94.83.95,1.85.95,1.85-.43,1.85-.95"/><ellipse class="cls-3" cx="20.7" cy="8.64" rx="1.85" ry="0.95"/><path class="cls-2" d="M33.83,17.72c0-.42-.67-.76-1.49-.76s-1.49.34-1.49.76.66.76,1.49.76,1.49-.34,1.49-.76"/><path class="cls-3" d="M33.83,17.72c0-.42-.67-.76-1.49-.76s-1.49.34-1.49.76.66.76,1.49.76S33.83,18.14,33.83,17.72Z"/><path class="cls-4" d="M26.76,18.72c0-.43-.68-.78-1.52-.78s-1.53.35-1.53.78.69.78,1.53.78,1.52-.35,1.52-.78"/><ellipse class="cls-3" cx="25.24" cy="18.72" rx="1.52" ry="0.78"/><path class="cls-4" d="M30.91,18.69c0-.43-.68-.78-1.52-.78s-1.53.35-1.53.78.69.78,1.53.78,1.52-.35,1.52-.78"/><ellipse class="cls-3" cx="29.39" cy="18.69" rx="1.52" ry="0.78"/><path class="cls-4" d="M29.16,12.92c0-.6-.94-1.08-2.11-1.08s-2.1.48-2.1,1.08S25.89,14,27.05,14s2.11-.49,2.11-1.08"/><ellipse class="cls-3" cx="27.05" cy="12.92" rx="2.11" ry="1.08"/><path class="cls-4" d="M31.43,13.9c0-.43-.67-.77-1.49-.77s-1.49.34-1.49.77.67.76,1.49.76,1.49-.34,1.49-.76"/><ellipse class="cls-3" cx="29.94" cy="13.9" rx="1.49" ry="0.76"/><path class="cls-2" d="M30.56,16c0-1.13-1.8-2.05-4-2.05s-4,.92-4,2.05,1.8,2.06,4,2.06,4-.92,4-2.06"/><ellipse class="cls-3" cx="26.54" cy="16.03" rx="4.02" ry="2.06"/><path class="cls-4" d="M31.82,12.4c0-.42-.67-.76-1.49-.76s-1.49.34-1.49.76.66.77,1.49.77,1.49-.34,1.49-.77"/><ellipse class="cls-3" cx="30.33" cy="12.4" rx="1.49" ry="0.76"/><path class="cls-4" d="M33.64,14.89c0-.42-.67-.76-1.5-.76s-1.49.34-1.49.76.67.76,1.49.76,1.5-.34,1.5-.76"/><ellipse class="cls-3" cx="32.14" cy="14.89" rx="1.49" ry="0.76"/><path class="cls-4" d="M33.25,16.35c0-.42-.67-.76-1.49-.76s-1.5.34-1.5.76.67.76,1.5.76,1.49-.34,1.49-.76"/><ellipse class="cls-3" cx="31.76" cy="16.35" rx="1.49" ry="0.76"/><path class="cls-4" d="M35.19,13.13c0-.56-.9-1-2-1s-2,.46-2,1,.9,1,2,1,2-.46,2-1"/><ellipse class="cls-3" cx="33.18" cy="13.13" rx="2.01" ry="1.03"/><path class="cls-4" d="M39.41,15.45c0-.54-.87-1-1.95-1s-1.94.45-1.94,1,.87,1,1.94,1,1.95-.45,1.95-1"/><ellipse class="cls-3" cx="37.46" cy="15.45" rx="1.95" ry="0.99"/><path class="cls-4" d="M36.36,14.53c0-.43-.67-.77-1.49-.77s-1.49.34-1.49.77.66.76,1.49.76,1.49-.34,1.49-.76"/><ellipse class="cls-3" cx="34.87" cy="14.53" rx="1.49" ry="0.76"/><path class="cls-4" d="M39.21,13.68c0-.47-.74-.84-1.65-.84s-1.65.37-1.65.84.74.85,1.65.85,1.65-.38,1.65-.85"/><ellipse class="cls-3" cx="37.56" cy="13.68" rx="1.65" ry="0.85"/><path class="cls-2" d="M36,16.13c0-.42-.66-.77-1.49-.77s-1.49.35-1.49.77.67.76,1.49.76S36,16.55,36,16.13"/><path class="cls-3" d="M36,16.13c0-.42-.66-.77-1.49-.77s-1.49.35-1.49.77.67.76,1.49.76S36,16.55,36,16.13Z"/><path class="cls-4" d="M61.58,16.71c0-.56-.9-1-2-1s-2,.46-2,1,.9,1,2,1,2-.46,2-1"/><ellipse class="cls-3" cx="59.57" cy="16.71" rx="2.01" ry="1.03"/><path class="cls-4" d="M61.58,15.07c0-.48-.77-.88-1.71-.88s-1.72.4-1.72.88.77.88,1.72.88,1.71-.39,1.71-.88"/><ellipse class="cls-3" cx="59.87" cy="15.07" rx="1.72" ry="0.88"/><path class="cls-4" d="M61.52,11.56c0-.69-1.09-1.24-2.43-1.24s-2.43.55-2.43,1.24,1.08,1.24,2.43,1.24,2.43-.55,2.43-1.24"/><ellipse class="cls-3" cx="59.09" cy="11.56" rx="2.43" ry="1.24"/><path class="cls-4" d="M61.52,9.87c0-.41-.65-.75-1.46-.75s-1.46.34-1.46.75.65.74,1.46.74,1.46-.33,1.46-.74"/><ellipse class="cls-3" cx="60.06" cy="9.87" rx="1.46" ry="0.75"/><path class="cls-4" d="M61.52,7.21c0-.41-.65-.74-1.46-.74s-1.46.33-1.46.74.65.75,1.46.75,1.46-.33,1.46-.75"/><ellipse class="cls-3" cx="60.06" cy="7.21" rx="1.46" ry="0.75"/><path class="cls-4" d="M61.52,5.29c0-.8-1.25-1.44-2.79-1.44s-2.79.64-2.79,1.44,1.25,1.44,2.79,1.44,2.79-.64,2.79-1.44"/><ellipse class="cls-3" cx="58.73" cy="5.29" rx="2.79" ry="1.44"/><path class="cls-4" d="M61.52,8.54c0-.45-.71-.81-1.59-.81s-1.59.36-1.59.81.71.81,1.59.81,1.59-.36,1.59-.81"/><ellipse class="cls-3" cx="59.93" cy="8.54" rx="1.59" ry="0.81"/><path class="cls-4" d="M61.52,13.55c0-.51-.8-.91-1.78-.91S58,13,58,13.55s.8.91,1.79.91,1.78-.41,1.78-.91"/><ellipse class="cls-3" cx="59.74" cy="13.55" rx="1.78" ry="0.91"/><path class="cls-4" d="M58.34,14.51c0-2.72-4.31-4.92-9.63-4.92s-9.63,2.2-9.63,4.92,4.31,4.92,9.63,4.92,9.63-2.2,9.63-4.92"/><ellipse class="cls-3" cx="48.71" cy="14.51" rx="9.63" ry="4.92"/><path class="cls-4" d="M61.52,2.89c0-.64-1-1.16-2.27-1.16S57,2.25,57,2.89s1,1.16,2.27,1.16,2.27-.52,2.27-1.16"/><ellipse class="cls-3" cx="59.25" cy="2.89" rx="2.27" ry="1.16"/><path class="cls-4" d="M50.11,8.84c0-.41-.66-.75-1.46-.75s-1.46.34-1.46.75.65.75,1.46.75,1.46-.34,1.46-.75"/><ellipse class="cls-3" cx="48.65" cy="8.84" rx="1.46" ry="0.75"/><path class="cls-4" d="M6.08,17.56c0-.41-.66-.75-1.46-.75s-1.46.34-1.46.75.65.75,1.46.75,1.46-.34,1.46-.75"/><ellipse class="cls-3" cx="4.62" cy="17.56" rx="1.46" ry="0.75"/><path class="cls-4" d="M6.53,13.86c0-.84-1.33-1.52-3-1.52s-3,.68-3,1.52,1.34,1.53,3,1.53,3-.68,3-1.53"/><ellipse class="cls-3" cx="3.55" cy="13.86" rx="2.98" ry="1.53"/><path class="cls-4" d="M8.61,14.58c0-.43-.69-.78-1.53-.78s-1.52.35-1.52.78.68.78,1.52.78,1.53-.35,1.53-.78"/><ellipse class="cls-3" cx="7.08" cy="14.58" rx="1.52" ry="0.78"/><path class="cls-4" d="M10.94,14.91c0-.43-.68-.78-1.52-.78s-1.53.35-1.53.78.68.78,1.53.78,1.52-.35,1.52-.78"/><ellipse class="cls-3" cx="9.42" cy="14.91" rx="1.52" ry="0.78"/><path class="cls-2" d="M16.74,17.43c0-1.11-1.76-2-3.93-2s-3.92.9-3.92,2,1.75,2,3.92,2,3.93-.9,3.93-2"/><path class="cls-3" d="M16.74,17.43c0-1.11-1.76-2-3.93-2s-3.92.9-3.92,2,1.75,2,3.92,2S16.74,18.54,16.74,17.43Z"/><path class="cls-4" d="M13.86,14.84c0-.47-.74-.84-1.66-.84s-1.65.37-1.65.84.74.85,1.65.85,1.66-.38,1.66-.85"/><ellipse class="cls-3" cx="12.2" cy="14.84" rx="1.65" ry="0.85"/><path class="cls-2" d="M20.28,14.76c0-.94-1.5-1.71-3.35-1.71s-3.35.77-3.35,1.71,1.5,1.72,3.35,1.72,3.35-.77,3.35-1.72"/><path class="cls-3" d="M20.28,14.76c0-.94-1.5-1.71-3.35-1.71s-3.35.77-3.35,1.71,1.5,1.72,3.35,1.72S20.28,15.71,20.28,14.76Z"/><path class="cls-4" d="M16.71,11.06c0-1.75-2.77-3.17-6.19-3.17S4.33,9.31,4.33,11.06s2.77,3.17,6.19,3.17,6.19-1.42,6.19-3.17"/><ellipse class="cls-3" cx="10.52" cy="11.06" rx="6.19" ry="3.17"/><path class="cls-2" d="M4,16.21c0-.49-.77-.88-1.72-.88S.6,15.72.6,16.21s.77.87,1.72.87S4,16.69,4,16.21"/><ellipse class="cls-3" cx="2.32" cy="16.21" rx="1.72" ry="0.88"/><path class="cls-2" d="M7.41,16c0-.49-.77-.88-1.72-.88S4,15.52,4,16s.76.88,1.71.88,1.72-.4,1.72-.88"/><ellipse class="cls-3" cx="5.69" cy="16.01" rx="1.72" ry="0.88"/></g><g id="Black_text" data-name="Black text"><path d="M7.57,10a3,3,0,0,1-.32,1.41,2.84,2.84,0,0,1-.94,1.05,4.31,4.31,0,0,1-1.23.55,6.06,6.06,0,0,1-1.53.18c-.36,0-.74,0-1.14-.07S1.6,13,1.16,12.93L.75,3l.55-.05.53,0a7,7,0,0,1,1.34.13,4.38,4.38,0,0,1,1.14.4,2.57,2.57,0,0,1,1,.84,2,2,0,0,1,.33,1.15A2.39,2.39,0,0,1,5.54,6a2.32,2.32,0,0,1-.21.59A3.61,3.61,0,0,1,7,8,3.72,3.72,0,0,1,7.57,10ZM5.51,9.1a2.26,2.26,0,0,0-.2-1,2.21,2.21,0,0,0-.59-.79,4.22,4.22,0,0,1-1,.69,4.81,4.81,0,0,1-1.23.41l-.34,3.72a3.61,3.61,0,0,0,1.25-.24,3.71,3.71,0,0,0,1.08-.64,2.87,2.87,0,0,0,.8-1A2.81,2.81,0,0,0,5.51,9.1ZM4,6.88l-.25-3a1,1,0,0,0-.28-.16A3.82,3.82,0,0,0,3,3.55L2.52,7.76a3.6,3.6,0,0,0,.86-.38A2.47,2.47,0,0,0,4,6.88Zm.69,1.8A14.74,14.74,0,0,0,3.7,10a13,13,0,0,0-.76,1.43H2.6a11.39,11.39,0,0,1,.66-1.53,14,14,0,0,1,.9-1.51Zm.42,3.56a.41.41,0,0,0-.1-.31.44.44,0,0,0-.32-.11.43.43,0,0,0-.31.11.41.41,0,0,0-.1.31.44.44,0,0,0,.1.32.43.43,0,0,0,.31.1.44.44,0,0,0,.32-.1A.44.44,0,0,0,5.08,12.24Zm1.32-.9A.49.49,0,0,0,6.24,11a.49.49,0,0,0-.38-.16.53.53,0,0,0-.39.16.51.51,0,0,0-.15.37.54.54,0,0,0,.15.39.56.56,0,0,0,.39.15.52.52,0,0,0,.38-.15A.51.51,0,0,0,6.4,11.34ZM6.83,10a.43.43,0,0,0-.1-.31.42.42,0,0,0-.32-.1.41.41,0,0,0-.31.1A.43.43,0,0,0,6,10a.44.44,0,0,0,.11.32.46.46,0,0,0,.31.1.47.47,0,0,0,.32-.1A.44.44,0,0,0,6.83,10Z"/><path d="M14.66,13.5l-1.94-.26.16-1.37a3.41,3.41,0,0,1-.94,1,2,2,0,0,1-1.07.32,1.46,1.46,0,0,1-1.16-.52,3.42,3.42,0,0,1-.66-1.57L9.52,11l0-.41L9,10.69l-.1-.54L9.39,10l0-.39-.57.13-.12-.59L9.28,9l-.06-.41-.61.12L8.53,8.3l2.23-.39c0,1,0,1.69,0,2.19s0,.75,0,.78a2.34,2.34,0,0,0,.18,1,.55.55,0,0,0,.52.34,1.2,1.2,0,0,0,.78-.36A4.8,4.8,0,0,0,13,10.81l.31-2.73L14.4,8Zm-2.12-5A10.66,10.66,0,0,0,12,9.86a9.84,9.84,0,0,0-.34,1.4l-.47-.2a12.46,12.46,0,0,1,.53-1.53,10.53,10.53,0,0,1,.66-1.3Z"/><path d="M22.37,10.57a3.43,3.43,0,0,1-.17,1.1,2.6,2.6,0,0,1-.52.88,2.2,2.2,0,0,1-.85.6,2.67,2.67,0,0,1-1.08.21,2.14,2.14,0,0,1-.82-.15,1.72,1.72,0,0,1-.64-.43,2,2,0,0,1-.39-.66,2.37,2.37,0,0,1-.13-.83,1.9,1.9,0,0,1,.11-.68,1.77,1.77,0,0,1,.33-.58,1.49,1.49,0,0,1,.53-.41,1.45,1.45,0,0,1,.66-.14,1.35,1.35,0,0,1,.9.31,1,1,0,0,1,.38.82,1.06,1.06,0,0,1-.06.37,1.18,1.18,0,0,1-.16.29.74.74,0,0,1-.28.22,1,1,0,0,1-.35.07.7.7,0,0,1-.44-.13.56.56,0,0,1-.19-.4.41.41,0,0,0,.11.07l.15,0a.46.46,0,0,0,.31-.1.49.49,0,0,0,.1-.32.43.43,0,0,0-.13-.32.56.56,0,0,0-.37-.11.88.88,0,0,0-.72.37,1.2,1.2,0,0,0-.17.36,1.51,1.51,0,0,0-.06.44,1.07,1.07,0,0,0,.4.86,1.39,1.39,0,0,0,.93.33,1.34,1.34,0,0,0,.64-.15,1.48,1.48,0,0,0,.49-.45,2.16,2.16,0,0,0,.29-.59,2.43,2.43,0,0,0,.1-.68,2.45,2.45,0,0,0-.12-.78,2,2,0,0,0-.36-.63,1.7,1.7,0,0,0-.6-.43,1.84,1.84,0,0,0-.76-.15,1.63,1.63,0,0,0-.7.15,1.89,1.89,0,0,0-.59.45,2.17,2.17,0,0,0-.4.6,2.35,2.35,0,0,0-.2.7l-.33,2.53-.84.19.07-6.84.7-.09V6.07l-.72,0V5.62l.74-.09,0-.46-.71.08,0-.41.77-.13,0-.48-.8.13V3.61L19,3.16l-1.09,5.9a2.45,2.45,0,0,1,.88-1A2.33,2.33,0,0,1,20,7.67a2.22,2.22,0,0,1,1,.22,2.08,2.08,0,0,1,.77.68,2.63,2.63,0,0,1,.43.91A3.78,3.78,0,0,1,22.37,10.57Z"/><path d="M29.56,10.57a3.43,3.43,0,0,1-.17,1.1,2.6,2.6,0,0,1-.52.88,2.2,2.2,0,0,1-.85.6,2.67,2.67,0,0,1-1.08.21,2.14,2.14,0,0,1-.82-.15,1.72,1.72,0,0,1-.64-.43,2,2,0,0,1-.39-.66,2.37,2.37,0,0,1-.13-.83,1.9,1.9,0,0,1,.11-.68A1.77,1.77,0,0,1,25.4,10a1.49,1.49,0,0,1,.53-.41,1.45,1.45,0,0,1,.66-.14,1.35,1.35,0,0,1,.9.31,1,1,0,0,1,.38.82,1.06,1.06,0,0,1-.06.37,1.18,1.18,0,0,1-.16.29.74.74,0,0,1-.28.22,1,1,0,0,1-.35.07.7.7,0,0,1-.44-.13.56.56,0,0,1-.19-.4.41.41,0,0,0,.11.07l.15,0A.46.46,0,0,0,27,11a.49.49,0,0,0,.09-.32.42.42,0,0,0-.12-.32.58.58,0,0,0-.37-.11.88.88,0,0,0-.72.37,1.2,1.2,0,0,0-.17.36,1.51,1.51,0,0,0-.06.44,1.07,1.07,0,0,0,.4.86,1.39,1.39,0,0,0,.93.33,1.34,1.34,0,0,0,.64-.15,1.48,1.48,0,0,0,.49-.45,2.16,2.16,0,0,0,.29-.59,2.43,2.43,0,0,0,.1-.68,2.45,2.45,0,0,0-.13-.78A2,2,0,0,0,28,9.35a1.58,1.58,0,0,0-.59-.43,1.84,1.84,0,0,0-.76-.15,1.63,1.63,0,0,0-.7.15,1.89,1.89,0,0,0-.59.45,2.17,2.17,0,0,0-.4.6,2.35,2.35,0,0,0-.2.7L24.4,13.2l-.84.19.07-6.84.7-.09V6.07l-.72,0V5.62l.74-.09,0-.46-.71.08,0-.41.77-.13,0-.48-.8.13V3.61l2.55-.45L25,9.06a2.54,2.54,0,0,1,.89-1,2.33,2.33,0,0,1,1.27-.38,2.25,2.25,0,0,1,1,.22,2.08,2.08,0,0,1,.77.68,2.63,2.63,0,0,1,.43.91A3.78,3.78,0,0,1,29.56,10.57Z"/><path d="M33.72,3.1l-1.2,10L30.66,13l.09-.54.73.1,0-1.07-.82,0,.05-.49h.77l0-1-.86,0,.07-.43h.8l0-1.13-.93,0,.06-.59.88.16v-1l-.88-.1.07-.48.83,0v-1l-1,0,.11-.55.85.09,0-1-1-.08.07-.59Z"/><path d="M40.38,11.25a9.53,9.53,0,0,1-.84,4.52A2.71,2.71,0,0,1,37,17.28a4.73,4.73,0,0,1-1.44-.21,3.78,3.78,0,0,1-1.19-.63l.27-.52a2.55,2.55,0,0,0,.88.49,3.4,3.4,0,0,0,1.08.16,2.75,2.75,0,0,0,.41,0,1.59,1.59,0,0,0,.38-.07l-.18,0H37a2.35,2.35,0,0,1-.84-.14,2.48,2.48,0,0,1-.76-.42,2.19,2.19,0,0,1-.57-.66,2,2,0,0,1-.21-.81c.16.22.32.41.46.57a1.92,1.92,0,0,0,.42.36,1.8,1.8,0,0,0,.56.26,2.69,2.69,0,0,0,.65.08,1.66,1.66,0,0,0,1.53-1.1,8.55,8.55,0,0,0,.63-3.29,4.68,4.68,0,0,1-.36.52,3.05,3.05,0,0,1-.36.36l.21.52-.36.31-.23-.61a1.27,1.27,0,0,1-.39.12,1.62,1.62,0,0,1-.44,0l-.17.66-.54-.13.26-.62a1.52,1.52,0,0,1-.49-.25,2.06,2.06,0,0,1-.4-.43l-.5.38-.39-.41.69-.39c-.06-.15-.11-.3-.16-.46a3,3,0,0,1-.08-.52l-.57.21-.18-.46.7-.21s0-.08,0-.13,0-.09,0-.14,0-.13,0-.24,0-.24,0-.4h-.79l.06-.55.78.11.06-.47,1-.07a8.94,8.94,0,0,0-.18.9,5.67,5.67,0,0,0-.06.79,3.26,3.26,0,0,0,.07.72,2.58,2.58,0,0,0,.22.59,1.42,1.42,0,0,0,.46.48,1.18,1.18,0,0,0,.63.16,1.22,1.22,0,0,0,1.05-.46,2.28,2.28,0,0,0,.34-1.38,5.33,5.33,0,0,0,0-.67c0-.23-.08-.48-.15-.74l1.58-.36c.06.58.11,1.13.14,1.66S40.38,10.77,40.38,11.25Z"/><path d="M46.92,3.52l-.64,1.24L46,4.62a.91.91,0,0,0-.22,0,1.11,1.11,0,0,0-.67.23,2.19,2.19,0,0,0-.59.67,3.15,3.15,0,0,0-.33.69c-.09.26-.17.54-.24.83l1.64-.27,0,.81-1.74.19s0,.08,0,.16,0,.2,0,.36l1.65-.18-.07.76-1.64.11-.42,5.21-2.11.3.32-1.61,1.33-.14L42.9,9l-1,.07-.18-.6,1.25-.13,0-.52-1,.09-.06-.58L43,7.15a14.21,14.21,0,0,1,.12-1.63,4.28,4.28,0,0,1,.27-1.11,2.18,2.18,0,0,1,.83-1A2.36,2.36,0,0,1,45.49,3a2,2,0,0,1,.72.13A2.84,2.84,0,0,1,46.92,3.52Z"/><path d="M51.56,12.52v.32a9.56,9.56,0,0,1-1.8.61,7.54,7.54,0,0,1-1.75.21,3.94,3.94,0,0,1-.88-.1,2.56,2.56,0,0,1-.72-.27,1.5,1.5,0,0,1-.56-.56,1.57,1.57,0,0,1-.19-.79,1.76,1.76,0,0,1,.8-1.42,7.14,7.14,0,0,1,2.39-1.09,1.06,1.06,0,0,0-.44-.57,1.41,1.41,0,0,0-.78-.19,2.05,2.05,0,0,0-.93.21,2.21,2.21,0,0,0-.73.61l-.32-.3a3.4,3.4,0,0,1,1.22-1.14,3.66,3.66,0,0,1,1.69-.38,2.24,2.24,0,0,1,1.38.43,3.29,3.29,0,0,1,1,1.31,7.14,7.14,0,0,1,.48,1.46A7.36,7.36,0,0,1,51.56,12.52Zm-2.3-.43a9.12,9.12,0,0,0,0-1.05,8.81,8.81,0,0,0-.15-1,9,9,0,0,0-1,.33,6.14,6.14,0,0,0-.77.38l.6,2.42a6.15,6.15,0,0,0,.81-.05,1.56,1.56,0,0,0,.54-.17c0-.14,0-.28,0-.42Zm1.39-1.61a.37.37,0,0,0-.41-.42.44.44,0,0,0-.32.11.42.42,0,0,0-.11.31.44.44,0,0,0,.11.32.49.49,0,0,0,.32.1.46.46,0,0,0,.31-.1A.44.44,0,0,0,50.65,10.48Zm.24,1.58a.55.55,0,0,0-.15-.38.54.54,0,0,0-.39-.15.55.55,0,0,0-.38.15.49.49,0,0,0-.16.38.51.51,0,0,0,.16.39.55.55,0,0,0,.38.15.51.51,0,0,0,.39-.16A.52.52,0,0,0,50.89,12.06Z"/><path d="M56.76,8.62a1.08,1.08,0,0,1-.21.73.82.82,0,0,1-.63.23.91.91,0,0,1-.57-.14A.5.5,0,0,1,55.16,9a.48.48,0,0,1,.07-.26.63.63,0,0,1,.23-.19l.17.12-.06.09a.16.16,0,0,0,0,.09.22.22,0,0,0,.07.17.33.33,0,0,0,.21.06A.35.35,0,0,0,56.09,9a.4.4,0,0,0,.09-.29.43.43,0,0,0-.08-.27.67.67,0,0,0-.23-.21,1.36,1.36,0,0,0-.28-.11,1.51,1.51,0,0,0-.32,0,1.25,1.25,0,0,0-.4.06,1.17,1.17,0,0,0-.34.16.76.76,0,0,0-.25.29A.81.81,0,0,0,54.2,9a.64.64,0,0,0,.15.4,1.57,1.57,0,0,0,.47.39l.84.54a2.13,2.13,0,0,1,.3.2,1.56,1.56,0,0,1,.47.57,1.38,1.38,0,0,1,.16.67,2.2,2.2,0,0,1-.19.9,1.92,1.92,0,0,1-.56.69,2.43,2.43,0,0,1-.78.41,3.14,3.14,0,0,1-.94.14,2.74,2.74,0,0,1-.64-.08,2.29,2.29,0,0,1-.59-.24,1.79,1.79,0,0,1-.51-.38,2.14,2.14,0,0,1-.37-.52l.44-.41a1.89,1.89,0,0,0,.66.75,1.6,1.6,0,0,0,.9.25,1.05,1.05,0,0,0,.76-.28,1,1,0,0,0,.29-.72,1.25,1.25,0,0,0-.13-.57,1.8,1.8,0,0,0-.4-.54l-.5-.44-.5-.43a2,2,0,0,1-.4-.56A1.51,1.51,0,0,1,53,9.1a1.45,1.45,0,0,1,.17-.7,1.73,1.73,0,0,1,.5-.55,2,2,0,0,1,.65-.29,2.66,2.66,0,0,1,.77-.1,2.9,2.9,0,0,1,.62.06,1.73,1.73,0,0,1,.5.18,1,1,0,0,1,.42.39A.93.93,0,0,1,56.76,8.62Zm-3.14,2.67a.72.72,0,0,1-.71.71.67.67,0,0,1-.5-.21.69.69,0,0,1,0-1,.67.67,0,0,1,.5-.21.72.72,0,0,1,.71.72Z"/><path d="M61.79,8.14l-.09.61-1.17.08-.09.71,1.26,0-.24.83-1.12-.07-.44,3.23-.86.15-.11-3.48-1.06-.08.18-.66.87,0,0-.55L57.77,9l-.25-.9h1.34l-.06-2L61,5.85l-.32,2.29ZM60.27,7.2a.48.48,0,1,0-1,0,.5.5,0,0,0,.12.37.6.6,0,0,0,.72,0A.5.5,0,0,0,60.27,7.2Zm-.21,1.44A.38.38,0,0,0,60,8.36a.36.36,0,0,0-.28-.1.37.37,0,0,0-.29.1.48.48,0,0,0,0,.56.4.4,0,0,0,.29.09A.39.39,0,0,0,60,8.92.38.38,0,0,0,60.06,8.64Z"/></g><g id="White_text" data-name="White text"><path class="cls-5" d="M7.07,10.27a2.93,2.93,0,0,1-.32,1.41,2.74,2.74,0,0,1-.94,1,3.87,3.87,0,0,1-1.22.55,5.65,5.65,0,0,1-1.54.19,11.23,11.23,0,0,1-1.13-.07,12.31,12.31,0,0,1-1.25-.23L.25,3.21l.56,0,.52,0a6.38,6.38,0,0,1,1.35.13,4.44,4.44,0,0,1,1.13.4,2.49,2.49,0,0,1,1,.84,2,2,0,0,1,.33,1.15,2.44,2.44,0,0,1-.07.59,3.05,3.05,0,0,1-.22.59A3.61,3.61,0,0,1,6.45,8.23,3.72,3.72,0,0,1,7.07,10.27ZM5,9.32a2.32,2.32,0,0,0-.19-1,2.3,2.3,0,0,0-.59-.78,4.48,4.48,0,0,1-1,.69A5.15,5.15,0,0,1,2,8.68L1.62,12.4a4,4,0,0,0,1.26-.24A3.85,3.85,0,0,0,4,11.52a2.84,2.84,0,0,0,.79-1A2.68,2.68,0,0,0,5,9.32ZM3.48,7.1l-.26-3A.66.66,0,0,0,3,3.94a4,4,0,0,0-.49-.16L2,8a4.18,4.18,0,0,0,.85-.38A2.18,2.18,0,0,0,3.48,7.1Zm.69,1.81a10.08,10.08,0,0,0-1,1.32,11.53,11.53,0,0,0-.76,1.43H2.1a11.39,11.39,0,0,1,.66-1.53,14,14,0,0,1,.9-1.51Zm.42,3.56a.42.42,0,1,0-.84,0,.44.44,0,0,0,.11.32.41.41,0,0,0,.31.1.41.41,0,0,0,.31-.1A.44.44,0,0,0,4.59,12.47Zm1.31-.9A.53.53,0,0,0,5.36,11,.49.49,0,0,0,5,11.2a.52.52,0,0,0-.16.37A.55.55,0,0,0,5,12a.52.52,0,0,0,.38.15.51.51,0,0,0,.54-.54Zm.44-1.37a.37.37,0,0,0-.42-.41.44.44,0,0,0-.32.1.41.41,0,0,0-.1.31.44.44,0,0,0,.1.32.49.49,0,0,0,.32.1.46.46,0,0,0,.31-.1A.44.44,0,0,0,6.34,10.2Z"/><path class="cls-5" d="M14.17,13.73l-1.95-.26.17-1.37a3.43,3.43,0,0,1-1,1,2,2,0,0,1-1.07.32,1.47,1.47,0,0,1-1.15-.52,3.32,3.32,0,0,1-.66-1.57L9,11.19l0-.42-.51.15-.1-.54.52-.14,0-.39L8.3,10l-.12-.59.6-.13-.06-.4L8.11,9,8,8.53l2.23-.39c0,1,0,1.69,0,2.19s0,.75,0,.78a2.36,2.36,0,0,0,.17,1,.56.56,0,0,0,.53.34,1.2,1.2,0,0,0,.78-.36A5,5,0,0,0,12.52,11l.32-2.73,1.07-.06ZM12,8.72a10.59,10.59,0,0,0-.55,1.37,8.8,8.8,0,0,0-.34,1.39l-.48-.19a16,16,0,0,1,.53-1.53,9.33,9.33,0,0,1,.67-1.3Z"/><path class="cls-5" d="M21.88,10.8a3.21,3.21,0,0,1-.18,1.1,2.7,2.7,0,0,1-.52.88,2.24,2.24,0,0,1-.84.6,2.67,2.67,0,0,1-1.08.21,2.1,2.1,0,0,1-.82-.15A1.65,1.65,0,0,1,17.8,13a2,2,0,0,1-.4-.66,2.63,2.63,0,0,1-.13-.83,2.11,2.11,0,0,1,.11-.68,2.23,2.23,0,0,1,.33-.58,1.89,1.89,0,0,1,.53-.42,1.59,1.59,0,0,1,.66-.13,1.4,1.4,0,0,1,.91.3,1,1,0,0,1,.37.83,1.25,1.25,0,0,1-.05.36,1.11,1.11,0,0,1-.17.3.8.8,0,0,1-.27.22,1,1,0,0,1-.35.07.67.67,0,0,1-.45-.14.56.56,0,0,1-.19-.39l.12.07.15,0a.41.41,0,0,0,.3-.11.4.4,0,0,0,.1-.31.38.38,0,0,0-.13-.32.54.54,0,0,0-.37-.11.91.91,0,0,0-.41.09.88.88,0,0,0-.3.28,1,1,0,0,0-.17.36,1.51,1.51,0,0,0-.06.44,1.08,1.08,0,0,0,.39.86,1.44,1.44,0,0,0,.94.33,1.33,1.33,0,0,0,.63-.15,1.39,1.39,0,0,0,.49-.45,1.91,1.91,0,0,0,.29-.59,2.11,2.11,0,0,0,.1-.68,2.37,2.37,0,0,0-.12-.78,2,2,0,0,0-.36-.63,1.76,1.76,0,0,0-.59-.43A1.89,1.89,0,0,0,18.93,9a1.58,1.58,0,0,0-.69.15,1.79,1.79,0,0,0-.59.45,2.06,2.06,0,0,0-.41.6,2.35,2.35,0,0,0-.2.7l-.32,2.53-.84.18.06-6.83.7-.09,0-.39-.73,0V5.85l.74-.09,0-.47-.71.09,0-.41.76-.13,0-.48-.79.13V3.84l2.55-.46-1.1,5.91a2.52,2.52,0,0,1,.88-1,2.28,2.28,0,0,1,1.28-.38,2.25,2.25,0,0,1,1,.22,2.16,2.16,0,0,1,.77.68,3.12,3.12,0,0,1,.43.9A4.25,4.25,0,0,1,21.88,10.8Z"/><path class="cls-5" d="M29.07,10.8a3.21,3.21,0,0,1-.18,1.1,2.7,2.7,0,0,1-.52.88,2.24,2.24,0,0,1-.84.6,2.67,2.67,0,0,1-1.08.21,2.19,2.19,0,0,1-.83-.15A1.69,1.69,0,0,1,25,13a2,2,0,0,1-.4-.66,2.63,2.63,0,0,1-.13-.83,2.11,2.11,0,0,1,.11-.68,2.23,2.23,0,0,1,.33-.58,1.76,1.76,0,0,1,.53-.42,1.59,1.59,0,0,1,.66-.13A1.4,1.4,0,0,1,27,10a1,1,0,0,1,.37.83,1,1,0,0,1-.06.36.87.87,0,0,1-.16.3.8.8,0,0,1-.27.22,1,1,0,0,1-.35.07.67.67,0,0,1-.45-.14.56.56,0,0,1-.19-.39l.12.07.14,0a.42.42,0,0,0,.31-.11.4.4,0,0,0,.1-.31.38.38,0,0,0-.13-.32.54.54,0,0,0-.37-.11.91.91,0,0,0-.41.09.8.8,0,0,0-.3.28,1,1,0,0,0-.17.36,1.51,1.51,0,0,0-.06.44,1.08,1.08,0,0,0,.39.86,1.44,1.44,0,0,0,.94.33,1.33,1.33,0,0,0,.63-.15,1.39,1.39,0,0,0,.49-.45,1.91,1.91,0,0,0,.29-.59A2.11,2.11,0,0,0,28,11a2.37,2.37,0,0,0-.12-.78,2,2,0,0,0-.36-.63,1.76,1.76,0,0,0-.59-.43A1.92,1.92,0,0,0,26.12,9a1.58,1.58,0,0,0-.69.15,1.79,1.79,0,0,0-.59.45,2.06,2.06,0,0,0-.41.6,2.35,2.35,0,0,0-.2.7l-.33,2.53-.83.18.06-6.83.7-.09,0-.39-.73,0V5.85l.74-.09,0-.47-.71.09,0-.41.76-.13,0-.48-.79.13V3.84l2.54-.46L24.55,9.29a2.45,2.45,0,0,1,.88-1,2.28,2.28,0,0,1,1.28-.38,2.25,2.25,0,0,1,1,.22,2.16,2.16,0,0,1,.77.68,3.12,3.12,0,0,1,.43.9A4.25,4.25,0,0,1,29.07,10.8Z"/><path class="cls-5" d="M33.22,3.33,32,13.36l-1.86-.18.09-.54.72.1,0-1.07-.82-.05,0-.49H31l0-1-.86,0,.06-.43H31l0-1.13-.93-.06.06-.58.88.16v-1L30.19,7l.07-.48.83,0v-1l-1,0,.11-.55L31.1,5l0-1-1-.08.08-.59Z"/><path class="cls-5" d="M39.89,11.48A9.53,9.53,0,0,1,39.05,16a2.71,2.71,0,0,1-2.52,1.51,4.73,4.73,0,0,1-1.44-.21,3.66,3.66,0,0,1-1.2-.64l.28-.51a2.62,2.62,0,0,0,.88.49,3.34,3.34,0,0,0,1.07.16,3.13,3.13,0,0,0,.8-.09l-.19,0h-.18a2.41,2.41,0,0,1-.85-.14,2.55,2.55,0,0,1-.75-.42,2.1,2.1,0,0,1-.57-.67,1.79,1.79,0,0,1-.21-.8,6.06,6.06,0,0,0,.45.56,2.65,2.65,0,0,0,.42.37,2.2,2.2,0,0,0,.56.26,2.71,2.71,0,0,0,.66.08,1.66,1.66,0,0,0,1.52-1.1,8.55,8.55,0,0,0,.63-3.29,3.49,3.49,0,0,1-.35.51,2.16,2.16,0,0,1-.37.37l.21.52-.35.31-.23-.61a1.27,1.27,0,0,1-.39.12,1.69,1.69,0,0,1-.45,0l-.17.66-.53-.13.25-.62a1.61,1.61,0,0,1-.48-.26,1.79,1.79,0,0,1-.4-.42l-.51.38L34.25,12l.69-.4a2.76,2.76,0,0,1-.15-.46,3.86,3.86,0,0,1-.09-.51l-.56.21L34,10.38l.71-.21s0-.08,0-.13V9.9c0-.05,0-.13,0-.24s0-.24,0-.4h-.8L34,8.7l.78.12.06-.47,1-.07a6.93,6.93,0,0,0-.19.9,5.67,5.67,0,0,0-.06.79,3.24,3.24,0,0,0,.08.72,2.18,2.18,0,0,0,.22.59,1.31,1.31,0,0,0,.45.48,1.18,1.18,0,0,0,.63.16A1.22,1.22,0,0,0,38,11.46a2.3,2.3,0,0,0,.35-1.38,5.43,5.43,0,0,0-.05-.67,5.71,5.71,0,0,0-.15-.74l1.59-.36c.06.58.11,1.13.14,1.66S39.89,11,39.89,11.48Z"/><path class="cls-5" d="M46.43,3.75,45.78,5l-.33-.13a.74.74,0,0,0-.22,0,1.13,1.13,0,0,0-.67.23A2.33,2.33,0,0,0,44,5.7a3.68,3.68,0,0,0-.32.69c-.09.26-.18.54-.25.83L45.05,7l0,.81L43.28,8a1.26,1.26,0,0,1,0,.16l-.05.35,1.65-.17-.06.76-1.65.11-.41,5.21-2.11.3L41,13.06l1.32-.14.13-3.71-1.06.08-.17-.6,1.24-.13,0-.52-1,.08-.07-.57,1.08-.18q0-.93.12-1.62a5.14,5.14,0,0,1,.27-1.11,2.24,2.24,0,0,1,.83-1A2.4,2.4,0,0,1,45,3.25a2,2,0,0,1,.72.13A3.08,3.08,0,0,1,46.43,3.75Z"/><path class="cls-5" d="M51.07,12.75v.32a9.24,9.24,0,0,1-1.79.61,7.61,7.61,0,0,1-1.76.2,4,4,0,0,1-.88-.09,2.62,2.62,0,0,1-.71-.27,1.53,1.53,0,0,1-.57-.56,1.68,1.68,0,0,1-.19-.79,1.82,1.82,0,0,1,.8-1.43,7.24,7.24,0,0,1,2.39-1.08,1,1,0,0,0-.43-.57,1.47,1.47,0,0,0-.79-.19,2,2,0,0,0-.92.21,2.12,2.12,0,0,0-.74.61l-.31-.3a3.09,3.09,0,0,1,1.22-1.14,3.48,3.48,0,0,1,1.69-.38,2.29,2.29,0,0,1,1.38.43,3.28,3.28,0,0,1,1,1.31,6,6,0,0,1,.48,1.46A8,8,0,0,1,51.07,12.75Zm-2.3-.43c0-.36,0-.71-.05-1.05s-.09-.7-.16-1c-.36.11-.7.22-1,.34a5.53,5.53,0,0,0-.77.38l.6,2.42a6,6,0,0,0,.8,0,2,2,0,0,0,.55-.17c0-.14,0-.28,0-.42S48.77,12.46,48.77,12.32Zm1.39-1.61a.46.46,0,0,0-.1-.31.52.52,0,0,0-.64,0,.42.42,0,0,0-.11.31.4.4,0,0,0,.11.31.42.42,0,0,0,.74-.31Zm.24,1.58a.52.52,0,0,0-.16-.38.53.53,0,0,0-.76,0,.5.5,0,0,0-.17.38.49.49,0,0,0,.17.38.49.49,0,0,0,.38.16.53.53,0,0,0,.38-.16A.49.49,0,0,0,50.4,12.29Z"/><path class="cls-5" d="M56.27,8.85a1.08,1.08,0,0,1-.21.73.82.82,0,0,1-.63.23,1,1,0,0,1-.58-.14.5.5,0,0,1-.19-.43A.47.47,0,0,1,54.74,9,.56.56,0,0,1,55,8.79l.17.12L55.07,9a.29.29,0,0,0,0,.09.21.21,0,0,0,.07.17.28.28,0,0,0,.2.05.32.32,0,0,0,.37-.37.5.5,0,0,0-.08-.27.71.71,0,0,0-.24-.21,1.09,1.09,0,0,0-.27-.11,1.71,1.71,0,0,0-.73,0,1.54,1.54,0,0,0-.34.17.86.86,0,0,0-.25.29.92.92,0,0,0-.08.38.6.6,0,0,0,.16.4,1.87,1.87,0,0,0,.46.39l.84.54.31.19a1.8,1.8,0,0,1,.47.58,1.5,1.5,0,0,1,.15.67,2.11,2.11,0,0,1-.18.89,2,2,0,0,1-.57.7,2.71,2.71,0,0,1-.77.41,3.14,3.14,0,0,1-.94.14A2.61,2.61,0,0,1,53,14a2.35,2.35,0,0,1-.6-.24,2.05,2.05,0,0,1-.88-.9l.44-.41a1.89,1.89,0,0,0,.66.75,1.69,1.69,0,0,0,.9.25,1.09,1.09,0,0,0,.76-.28.92.92,0,0,0,.3-.72,1.4,1.4,0,0,0-.13-.57,2,2,0,0,0-.41-.55l-.49-.43L53,10.51a2.11,2.11,0,0,1-.4-.57,1.42,1.42,0,0,1-.13-.61,1.45,1.45,0,0,1,.17-.7,1.62,1.62,0,0,1,.5-.55,2.22,2.22,0,0,1,.64-.3,3.13,3.13,0,0,1,.77-.09,3.06,3.06,0,0,1,.63.06,1.78,1.78,0,0,1,.49.18,1,1,0,0,1,.43.39A1,1,0,0,1,56.27,8.85Zm-3.14,2.66a.72.72,0,1,1-.21-.5A.69.69,0,0,1,53.13,11.51Z"/><path class="cls-5" d="M61.29,8.36,61.21,9,60,9.06,60,9.77l1.26,0-.24.83-1.12-.07-.44,3.23-.86.15-.12-3.48-1-.08.18-.66.86,0,0-.55-1.12.08L57,8.36h1.34l0-2,2.15-.25-.32,2.28Zm-1.52-.93a.48.48,0,1,0-1,0,.51.51,0,0,0,.12.37.6.6,0,0,0,.72,0A.51.51,0,0,0,59.77,7.43Zm-.21,1.44a.42.42,0,0,0-.09-.29.38.38,0,0,0-.66.29.34.34,0,0,0,.1.28.37.37,0,0,0,.65-.28Z"/></g></g></g></g></svg>